<svg xmlns="http://www.w3.org/2000/svg" width="399.999" height="297" viewBox="0 0 399.999 297"><defs><style>.a,.d{fill:#fff;}.a,.b,.c{fill-rule:evenodd;}.b{fill:#1bd9c4;}</style></defs><g transform="translate(0 0)"><path class="a" d="M5900.87,5003s7.033,26.282,7.033,39.731-8.175,22.722-32.172,22.722S5852,5008.142,5852,5008.142Z" transform="translate(-5594.798 -4783.266)"/><path d="M5862.518,4962.181c0,.088,7.076,26.546,7.076,40.215,0,7.3-2.241,13.448-7.779,17.844-5.361,4.263-13.8,6.725-26.238,6.725-25.886,0-25.58-58.981-25.58-59.157a1.849,1.849,0,0,1,1.8-1.847l48.74-5.142A1.877,1.877,0,0,1,5862.518,4962.181Zm3.384,40.215c0-11.3-5.1-31.952-6.593-37.709l-45.576,4.791c.176,9.229,1.978,53.8,21.843,53.8,11.559,0,19.206-2.2,23.909-5.933C5864.057,5013.735,5865.9,5008.55,5865.9,5002.4Z" transform="translate(-5554.645 -4742.931)"/><path class="a" d="M2117.032,5003s-7.032,26.282-7.032,39.731,8.175,22.722,32.172,22.722c24.041,0,23.733-57.312,23.733-57.312Z" transform="translate(-2017.265 -4783.266)"/><path d="M2078.285,4964.687c-1.494,5.758-6.593,26.414-6.593,37.709,0,6.154,1.846,11.339,6.417,14.943,4.7,3.736,12.35,5.933,23.909,5.933,19.866,0,21.667-44.566,21.844-53.8ZM2068,5002.4c0-13.668,7.076-40.127,7.076-40.215a1.876,1.876,0,0,1,1.977-1.362l48.741,5.142a1.849,1.849,0,0,1,1.8,1.847c0,.176.308,59.157-25.579,59.157-12.438,0-20.876-2.462-26.238-6.725C2070.241,5015.844,2068,5009.692,2068,5002.4Z" transform="translate(-1977.11 -4742.931)"/><path class="b" d="M2306.467,3432.441S2301.632,3355,2195.755,3355c-105.92,0-110.755,77.441-110.755,77.441l25.448,10.855,85.308,6.285,85.264-6.285Z" transform="translate(-1993.364 -3207.655)"/><path d="M2264.275,3391.1c-1.187-10.021-12.57-74.408-108.734-74.408s-107.547,64.387-108.733,74.408l23.865,10.2,84.868,6.285,84.824-6.285ZM2155.541,3313c107.635,0,112.557,78.935,112.557,79.155A1.809,1.809,0,0,1,2267,3394l-25.36,10.812a1.288,1.288,0,0,1-.7.176l-85.264,6.285a.281.281,0,0,1-.264,0l-85.308-6.285a1.349,1.349,0,0,1-.571-.132l-25.359-10.812a1.9,1.9,0,0,1-1.231-1.89C2042.984,3391.935,2047.906,3313,2155.541,3313Z" transform="translate(-1953.149 -3167.501)"/><path class="a" d="M4068.866,2338h0c13.141,0,23.909,8.351,23.909,18.547v28.26c0,10.2-10.768,18.5-23.909,18.5h0c-13.141,0-23.865-8.306-23.865-18.5v-28.26C4045,2346.351,4055.725,2338,4068.866,2338Z" transform="translate(-3867.221 -2235.31)"/><path d="M4027.756,2296a29.572,29.572,0,0,1,18.019,5.845c4.791,3.691,7.736,8.834,7.736,14.548v28.26c0,5.67-2.945,10.856-7.736,14.548a30.7,30.7,0,0,1-36.039,0c-4.747-3.692-7.735-8.878-7.735-14.548v-28.26c0-5.714,2.989-10.856,7.735-14.548A29.575,29.575,0,0,1,4027.756,2296Zm15.734,8.79a27.017,27.017,0,0,0-31.468,0c-3.868,2.989-6.285,7.12-6.285,11.6v28.26c0,4.483,2.417,8.615,6.285,11.6a27.018,27.018,0,0,0,31.468,0c3.867-2.989,6.285-7.12,6.285-11.6v-28.26C4049.775,2311.91,4047.357,2307.779,4043.49,2304.79Z" transform="translate(-3826.111 -2195.155)"/><path class="a" d="M3351.955,1619h0c6.592,0,11.955,5.758,11.955,12.834v8.7c0,7.076-5.362,12.834-11.955,12.834h0c-6.593,0-11.954-5.758-11.954-12.834v-8.7C3340,1624.758,3345.362,1619,3351.955,1619Z" transform="translate(-3193.206 -1547.884)"/><path d="M3310.844,1577a13.4,13.4,0,0,1,9.8,4.351,15.094,15.094,0,0,1,4.043,10.328v8.7a15.1,15.1,0,0,1-4.043,10.328,13.213,13.213,0,0,1-19.6,0,15.1,15.1,0,0,1-4.043-10.328v-8.7a15.1,15.1,0,0,1,4.043-10.328A13.4,13.4,0,0,1,3310.844,1577Zm7.076,6.9a9.516,9.516,0,0,0-7.076-3.165,9.681,9.681,0,0,0-7.12,3.165,11.318,11.318,0,0,0-2.989,7.779v8.7a11.4,11.4,0,0,0,2.989,7.779,9.682,9.682,0,0,0,7.12,3.165,9.516,9.516,0,0,0,7.076-3.165,11.234,11.234,0,0,0,3.032-7.779v-8.7A11.154,11.154,0,0,0,3317.921,1583.9Z" transform="translate(-3152.096 -1507.729)"/><path class="a" d="M5321.955,1619h0c6.593,0,11.954,5.758,11.954,12.834v8.7c0,7.076-5.361,12.834-11.954,12.834h0c-6.593,0-11.955-5.758-11.955-12.834v-8.7C5310,1624.758,5315.362,1619,5321.955,1619Z" transform="translate(-5076.623 -1547.884)"/><path d="M5280.845,1577a13.4,13.4,0,0,1,9.8,4.351,15.1,15.1,0,0,1,4.043,10.328v8.7a15.1,15.1,0,0,1-4.043,10.328,13.214,13.214,0,0,1-19.6,0l-.088-.132a15.105,15.105,0,0,1-3.955-10.2v-8.7a15.093,15.093,0,0,1,4.043-10.328A13.4,13.4,0,0,1,5280.845,1577Zm7.121,6.9a9.684,9.684,0,0,0-7.121-3.165,9.515,9.515,0,0,0-7.076,3.165,11.152,11.152,0,0,0-3.032,7.779v8.7a11.431,11.431,0,0,0,2.944,7.691l.087.088a9.515,9.515,0,0,0,7.076,3.165,9.685,9.685,0,0,0,7.121-3.165,11.4,11.4,0,0,0,2.988-7.779v-8.7A11.322,11.322,0,0,0,5287.965,1583.9Z" transform="translate(-5035.514 -1507.729)"/><path class="a" d="M3679.753,639h0c22.942,0,41.753,20.085,41.753,44.61,0,29.271-5.142,75.111-41.753,75.111S3638,712.573,3638,683.61C3638,659.086,3656.811,639,3679.753,639Z" transform="translate(-3478.108 -610.914)"/><path d="M3639.6,597a42.261,42.261,0,0,1,30.853,13.669,48.022,48.022,0,0,1,12.746,32.787c0,14.811-1.318,33.842-7.252,49.224-6.153,15.778-17.1,27.777-36.347,27.777s-30.194-12.086-36.3-27.909c-5.977-15.427-7.3-34.457-7.3-49.093a47.854,47.854,0,0,1,12.79-32.787A42.164,42.164,0,0,1,3639.6,597Zm28.129,16.218a37.847,37.847,0,0,0-56.257,0,44.161,44.161,0,0,0-11.734,30.238c0,14.328,1.274,32.875,6.988,47.73,5.626,14.5,15.558,25.535,32.875,25.535,17.361,0,27.249-10.944,32.875-25.4,5.758-14.811,6.988-33.358,6.988-47.862A44.159,44.159,0,0,0,3667.728,613.218Z" transform="translate(-3437.955 -570.76)"/><path d="M4242.861,2744.166a1.849,1.849,0,0,1,2.593,2.637,24.376,24.376,0,0,1-7.779,5.186,23.034,23.034,0,0,1-17.537.219,25.4,25.4,0,0,1-7.471-4.658,1.873,1.873,0,0,1-.131-2.637,1.818,1.818,0,0,1,2.592-.131,21.821,21.821,0,0,0,6.373,3.955,19.581,19.581,0,0,0,7.164,1.363,18.894,18.894,0,0,0,7.56-1.538A21.562,21.562,0,0,0,4242.861,2744.166Z" transform="translate(-4026.933 -2623.101)"/><path class="c" d="M2637.769,4070H2796.3a6.762,6.762,0,0,1,6.725,6.769v89.922a6.762,6.762,0,0,1-6.725,6.769H2637.769a6.772,6.772,0,0,1-6.769-6.769v-89.922A6.772,6.772,0,0,1,2637.769,4070Z" transform="translate(-2515.367 -3891.271)"/><path d="M2597.615,4028h158.529a8.628,8.628,0,0,1,8.615,8.614v89.923a8.607,8.607,0,0,1-2.549,6.109l-.088.087a8.711,8.711,0,0,1-5.977,2.417H2597.615a8.756,8.756,0,0,1-6.109-2.5h0a8.754,8.754,0,0,1-2.506-6.109v-89.923a8.754,8.754,0,0,1,2.506-6.109l.132-.087A8.553,8.553,0,0,1,2597.615,4028Zm158.529,3.736H2597.615a4.864,4.864,0,0,0-3.384,1.318l-.088.088a4.918,4.918,0,0,0-1.45,3.472v89.923a4.952,4.952,0,0,0,4.922,4.922h158.529a4.876,4.876,0,0,0,3.341-1.363l.087-.088a4.916,4.916,0,0,0,1.45-3.472v-89.923a4.918,4.918,0,0,0-1.45-3.472A4.852,4.852,0,0,0,2756.144,4031.736Z" transform="translate(-2475.213 -3851.118)"/><path class="c" d="M2637.769,4070H2796.3a6.762,6.762,0,0,1,6.725,6.769v89.922a6.762,6.762,0,0,1-6.725,6.769H2637.769a6.772,6.772,0,0,1-6.769-6.769v-89.922A6.772,6.772,0,0,1,2637.769,4070Z" transform="translate(-2515.367 -3891.271)"/><path d="M2597.615,4028h158.529a8.628,8.628,0,0,1,8.615,8.614v89.923a8.607,8.607,0,0,1-2.549,6.109l-.088.087a8.711,8.711,0,0,1-5.977,2.417H2597.615a8.756,8.756,0,0,1-6.109-2.5h0a8.754,8.754,0,0,1-2.506-6.109v-89.923a8.754,8.754,0,0,1,2.506-6.109l.132-.087A8.553,8.553,0,0,1,2597.615,4028Zm158.529,3.736H2597.615a4.864,4.864,0,0,0-3.384,1.318l-.088.088a4.918,4.918,0,0,0-1.45,3.472v89.923a4.952,4.952,0,0,0,4.922,4.922h158.529a4.876,4.876,0,0,0,3.341-1.363l.087-.088a4.916,4.916,0,0,0,1.45-3.472v-89.923a4.918,4.918,0,0,0-1.45-3.472A4.852,4.852,0,0,0,2756.144,4031.736Z" transform="translate(-2475.213 -3851.118)"/><path class="c" d="M3498.746,125.069s10.285-29.711,10.285-46.9c0-8.878-4.791-17.976-14.372-20.745,3.12-2.373,6.5-3.472,10.5-1.758-3.692-5.362-9.669-6.417-14.944-2.593-.967-8.219-3.867-11.207-12.437-11.119,4.439,2.549,6.241,5.889,6.065,10.328-13.669-7.867-35.161-7.076-49.093-2.945C3417.219,54.617,3405,65.824,3405,78.174c0,17.185,10.241,46.9,10.241,46.9v-.044c0-.967.044-16.394,1.23-22.9.044-.22.132-.44.176-.659,1.978-6.5,15.47-12.834,15.47-12.834l-4.878,12a76.076,76.076,0,0,0,34.281,1.846c11.339-2.11,22.767-9.449,29.93-14.767a46.651,46.651,0,0,1,7.3,25.1Z" transform="translate(-3255.349 -40.112)"/><path d="M3459.483,72.7c2.944-10.065,6.548-24.612,6.548-34.677a21.8,21.8,0,0,0-3.648-12.218,16.7,16.7,0,0,0-9.362-6.724,1.863,1.863,0,0,1-1.231-2.329,1.833,1.833,0,0,1,.659-.967,13.944,13.944,0,0,1,5.625-2.725l.176-.044a7.37,7.37,0,0,0-1.406-.4h0a8.657,8.657,0,0,0-6.373,1.626l-.264.176a1.838,1.838,0,0,1-2.593-.4,1.7,1.7,0,0,1-.352-.879c-.439-3.692-1.231-6.109-2.769-7.516a6,6,0,0,0-2.065-1.231c.22.308.439.615.615.923a11.991,11.991,0,0,1,1.538,6.856,1.839,1.839,0,0,1-1.933,1.8,1.447,1.447,0,0,1-.835-.264c-5.977-3.428-13.625-5.142-21.448-5.582A78.121,78.121,0,0,0,3394.216,11c-8.614,2.593-15.91,6.593-20.964,11.471-4.747,4.615-7.516,9.977-7.516,15.558,0,10.372,3.823,25.447,6.812,35.512,0-.879.044-1.8.088-2.725a85.005,85.005,0,0,1,.923-9.142v-.088h0l.176-.7a1.913,1.913,0,0,1,.044-.22c2.33-7.252,16.35-13.844,16.394-13.844a1.812,1.812,0,0,1,2.505.879,1.877,1.877,0,0,1,0,1.538l-4.044,10.021a74.792,74.792,0,0,0,31.469,1.275,55.493,55.493,0,0,0,13.712-4.835,102.278,102.278,0,0,0,15.427-9.625,1.877,1.877,0,0,1,2.593.352c.044.088.087.132.132.22a48.634,48.634,0,0,1,7.516,26.019Zm10.284-34.677c0,17.053-9.844,45.884-10.372,47.423a1.8,1.8,0,0,1-1.759,1.319,1.867,1.867,0,0,1-1.89-1.846V72.658a45.782,45.782,0,0,0-1.758-12.614,44.194,44.194,0,0,0-4.176-9.8,101.635,101.635,0,0,1-14.372,8.79,57.774,57.774,0,0,1-14.679,5.142,78.422,78.422,0,0,1-35.073-1.89c-.088-.044-.176-.044-.263-.088a1.825,1.825,0,0,1-1.011-2.417l2.9-7.252c-3.824,2.285-8.922,5.845-9.977,9.274l-.176.615c-.351,2.154-.615,5.318-.791,8.57-.351,6.373-.351,13.229-.351,13.888v.044a1.88,1.88,0,0,1-3.648.615c0-.088-10.372-30.018-10.372-47.51,0-6.637,3.208-12.877,8.658-18.2,5.494-5.318,13.273-9.669,22.459-12.394A82.4,82.4,0,0,1,3420.586,4.4,57.65,57.65,0,0,1,3440.54,8.93a7.394,7.394,0,0,0-.7-1.714,10.5,10.5,0,0,0-4.044-3.736,1.851,1.851,0,0,1-.967-1.626,1.839,1.839,0,0,1,1.846-1.89c4.747-.044,8.043.791,10.329,2.9a12.443,12.443,0,0,1,3.516,7.076A11.889,11.889,0,0,1,3457.5,8.93a12.571,12.571,0,0,1,7.823,5.142l.176.308a1.85,1.85,0,0,1,.263,1.846,1.874,1.874,0,0,1-2.461,1.011,7.1,7.1,0,0,0-4.483-.527,4.919,4.919,0,0,0-1.01.264,21,21,0,0,1,7.647,6.724A25.632,25.632,0,0,1,3469.767,38.025Z" transform="translate(-3214.239 0.037)"/><path class="c" d="M2058.461,6424h209.995a6.471,6.471,0,0,1,6.461,6.46h0a6.472,6.472,0,0,1-6.461,6.462H2058.461a6.472,6.472,0,0,1-6.461-6.462h0A6.471,6.471,0,0,1,2058.461,6424Z" transform="translate(-1961.814 -6141.813)"/><path d="M2018.307,6382h210a8.329,8.329,0,0,1,0,16.657h-210a8.458,8.458,0,0,1-5.889-2.461l-.088-.132a8.217,8.217,0,0,1-2.329-5.757,8.421,8.421,0,0,1,2.417-5.89l.132-.087A8.294,8.294,0,0,1,2018.307,6382Zm210,3.692h-210a4.561,4.561,0,0,0-3.164,1.275l-.088.087a4.547,4.547,0,0,0-1.318,3.252,4.733,4.733,0,0,0,1.23,3.165l.088.088a4.666,4.666,0,0,0,3.252,1.363h210a4.615,4.615,0,0,0,0-9.23Z" transform="translate(-1921.66 -6101.658)"/><path class="c" d="M4088.4,1918.79a4.4,4.4,0,1,0-4.395-4.4A4.408,4.408,0,0,0,4088.4,1918.79Z" transform="translate(-3904.507 -1826.097)"/><path class="c" d="M4916.4,1918.79a4.4,4.4,0,1,0-4.4-4.4A4.417,4.417,0,0,0,4916.4,1918.79Z" transform="translate(-4696.117 -1826.097)"/><path d="M4.89,6679.737a1.868,1.868,0,1,1,0-3.736H400.532a1.868,1.868,0,0,1,0,3.736Z" transform="translate(-2.868 -6382.737)"/><path class="b" d="M515.405,5436.895h23.953a9.416,9.416,0,0,0,9.405-9.406V5378H506v49.488A9.416,9.416,0,0,0,515.405,5436.895Z" transform="translate(-483.761 -5141.785)"/><path d="M475.251,5394.894H499.2a7.508,7.508,0,0,0,5.318-2.2v-.044a7.466,7.466,0,0,0,2.241-5.317v-47.6H467.692v47.6a7.466,7.466,0,0,0,2.241,5.317l.088.089A7.448,7.448,0,0,0,475.251,5394.894Zm23.953,3.736H475.251a11.366,11.366,0,0,1-7.867-3.208l-.088-.132a11.047,11.047,0,0,1-3.3-7.955v-49.489a1.857,1.857,0,0,1,1.846-1.846H508.61a1.857,1.857,0,0,1,1.846,1.846v49.489a11.047,11.047,0,0,1-3.3,7.955h0A11.082,11.082,0,0,1,499.2,5398.63Z" transform="translate(-443.607 -5101.63)"/><path d="M7.428,5624H22.239a1.857,1.857,0,0,1,1.846,1.846v28.437a1.857,1.857,0,0,1-1.846,1.845H7.428a7.368,7.368,0,0,1-5.23-2.153v-.044A7.227,7.227,0,0,1,0,5648.7v-17.273a7.3,7.3,0,0,1,2.2-5.229h0A7.227,7.227,0,0,1,7.428,5624Zm12.965,3.736H7.428a3.518,3.518,0,0,0-2.593,1.1H4.791a3.652,3.652,0,0,0-1.055,2.592V5648.7a3.838,3.838,0,0,0,1.055,2.637,3.838,3.838,0,0,0,2.637,1.055H20.393Z" transform="translate(0 -5376.973)"/><path class="d" d="M775,5618.891a1.868,1.868,0,1,1,3.736,0v33.578a1.868,1.868,0,0,1-3.736,0Z" transform="translate(-740.938 -5370.281)"/><path class="d" d="M1522.363,1465.89a13.589,13.589,0,0,0-5.625-6.768,13.871,13.871,0,0,0-10.46-1.67h0a13.793,13.793,0,0,0-10.548,14.767Zm-3.692-9.933a17.474,17.474,0,0,1,7.867,10.856,1.87,1.87,0,0,1-1.406,2.242l-30.414,7.252a1.657,1.657,0,0,1-.483.044,1.889,1.889,0,0,1-1.846-1.494,17.507,17.507,0,0,1,12.965-21.008l.132-.044A17.337,17.337,0,0,1,1518.671,1455.957Z" transform="translate(-1426.375 -1389.494)"/><path class="d" d="M1525.1,1397.737a1.871,1.871,0,0,1,.088-2.637,1.818,1.818,0,0,1,2.593.088l4.966,5.274a1.78,1.78,0,0,1-.044,2.593,1.831,1.831,0,0,1-2.637-.044Z" transform="translate(-1457.593 -1333.337)"/><path class="d" d="M1906.248,1294.413a1.863,1.863,0,1,1,3.56,1.1l-2.066,6.9a1.857,1.857,0,1,1-3.56-1.055Z" transform="translate(-1820.413 -1236.295)"/><path class="d" d="M1536.44,1874.923l30.458-7.252a1.81,1.81,0,0,1,2.242,1.362l5.274,22.151a5.5,5.5,0,0,1-.659,4.175h0a5.535,5.535,0,0,1-3.428,2.461l-.791.22,1.362,5.714a5.316,5.316,0,0,1-3.912,6.329h-.044a5.271,5.271,0,0,1-3.912-.66h0a5.324,5.324,0,0,1-2.373-3.252l-1.363-5.713-1.318.308,1.362,5.714a5.344,5.344,0,0,1-.659,3.955v.044a5.29,5.29,0,0,1-7.208,1.714,5.45,5.45,0,0,1-2.373-3.252l-1.362-5.757-.791.22a5.545,5.545,0,0,1-4.175-.7h0a5.444,5.444,0,0,1-2.461-3.384l-5.274-22.151A1.87,1.87,0,0,1,1536.44,1874.923Zm29.535-3.208-26.9,6.373,4.834,20.349a1.785,1.785,0,0,0,.835,1.1h0a1.521,1.521,0,0,0,1.319.22l2.637-.615a1.87,1.87,0,0,1,2.241,1.406l1.8,7.515a1.678,1.678,0,0,0,.659.967,1.8,1.8,0,0,0,1.187.176,1.478,1.478,0,0,0,.923-.7h0a1.3,1.3,0,0,0,.176-1.143l-1.758-7.56a1.849,1.849,0,0,1,1.362-2.241l4.966-1.143a1.829,1.829,0,0,1,2.241,1.362l1.8,7.559a1.578,1.578,0,0,0,.659.923h0a1.567,1.567,0,0,0,1.1.22l.088-.044a1.455,1.455,0,0,0,.923-.659,1.569,1.569,0,0,0,.176-1.187l-1.8-7.516a1.87,1.87,0,0,1,1.406-2.241l2.593-.615a2.16,2.16,0,0,0,1.143-.791h0a2.056,2.056,0,0,0,.22-1.362Z" transform="translate(-1467.526 -1785.576)"/><path class="d" d="M2393.031,1830.913a1.876,1.876,0,0,1,1.362-2.242,1.81,1.81,0,0,1,2.242,1.363l4.351,18.283a1.829,1.829,0,0,1-1.362,2.241,1.87,1.87,0,0,1-2.242-1.406Z" transform="translate(-2287.814 -1748.285)"/><path class="d" d="M1370.672,2073.913a1.855,1.855,0,0,1,3.6-.88l4.351,18.284a1.85,1.85,0,1,1-3.6.835Z" transform="translate(-1310.372 -1980.611)"/><path class="a" d="M1691.082,1695.732a1.9,1.9,0,0,1,.879,3.692,1.9,1.9,0,0,1-.879-3.692Z" transform="translate(-1615.355 -1621.185)"/><path class="a" d="M1939.138,1636.732a1.9,1.9,0,1,1-1.406,2.285A1.881,1.881,0,0,1,1939.138,1636.732Z" transform="translate(-1852.512 -1564.777)"/><path class="d" d="M6607.419,1728.637a7.5,7.5,0,0,0-2.242.088,10.3,10.3,0,0,1-5.538-.308c-2.812-.835-6.548-5.186-8.131-11.647a30.675,30.675,0,0,1,.616-16.174,15.123,15.123,0,0,1,6.813-8.966,15.437,15.437,0,0,1,11.426-1.8,13.886,13.886,0,0,1,5.275,3.077,6.4,6.4,0,0,0,2.066,1.407,6.68,6.68,0,0,0,2.461-.044,13.07,13.07,0,0,1,6.109.352,13.52,13.52,0,0,1,5.01,3.032,15.641,15.641,0,0,1,3.6,4.835,1.845,1.845,0,0,1-.879,2.461.754.754,0,0,1-.219.088,9.833,9.833,0,0,0-5.8,6.285,9.942,9.942,0,0,0-.131,5.186,10.13,10.13,0,0,0,2.681,4.527,1.822,1.822,0,0,1,.175,2.417,26.027,26.027,0,0,1-7.867,7.252h0c-3.429,2.022-6.769,2.637-8.834,2.022a10.618,10.618,0,0,1-4.834-2.769A6.135,6.135,0,0,0,6607.419,1728.637Zm-2.813-3.56a9.244,9.244,0,0,1,3.692-.044,1.043,1.043,0,0,1,.352.088,9.863,9.863,0,0,1,3.077,2.11,7.73,7.73,0,0,0,3.384,1.934c1.143.352,3.34-.176,5.89-1.67h0a22,22,0,0,0,5.8-5.01,13.8,13.8,0,0,1-2.506-5.011v-.044a13.054,13.054,0,0,1,3.166-12.482,13.019,13.019,0,0,1,3.12-2.505,11.69,11.69,0,0,0-1.8-2.066,8.865,8.865,0,0,0-8.131-2.417,9.464,9.464,0,0,1-4-.088,8.707,8.707,0,0,1-3.428-2.11,10.263,10.263,0,0,0-3.913-2.373,11.527,11.527,0,0,0-13.624,8.263,27.664,27.664,0,0,0-.571,14.284c1.274,5.1,3.779,8.395,5.582,8.922A7.251,7.251,0,0,0,6604.606,1725.077Z" transform="translate(-6301.041 -1615.2)"/><path class="d" d="M7227.445,1499.1a15.784,15.784,0,0,1-6.066,6.988,14.793,14.793,0,0,1-8.658,2.329,1.86,1.86,0,0,1-1.758-1.934v-.176a6.765,6.765,0,0,1,.264-1.363c.879-2.857,3.385-5.1,6.154-6.549a15.318,15.318,0,0,1,7.779-1.978,8.089,8.089,0,0,1,1.1.22,1.817,1.817,0,0,1,1.231,2.285Zm-8.043,3.868a12.8,12.8,0,0,0,2.9-2.549,18.366,18.366,0,0,0-3.209,1.231,10.824,10.824,0,0,0-3.516,2.813A11.393,11.393,0,0,0,7219.4,1502.972Z" transform="translate(-6894.037 -1430.663)"/><path class="d" d="M33.275,3777.328a1.822,1.822,0,0,1-2.241,1.319,1.85,1.85,0,0,1-1.362-2.242l5.406-20.481a1.822,1.822,0,0,1,2.241-1.318,1.85,1.85,0,0,1,1.362,2.241Z" transform="translate(-28.309 -3589.618)"/><path class="d" d="M77.847,3767.273l4.966.4a6.18,6.18,0,0,0,3.956-1.187,6.3,6.3,0,0,0,2.417-3.34c.044-.044.044-.132.088-.22a3.856,3.856,0,0,0,.088-.7,3.472,3.472,0,0,0-2.637-3.823c-.22-.044-.483-.088-.747-.132l-5.626-.439Zm4.659,4.087-7.164-.571c-.088,0-.22-.044-.308-.044a1.874,1.874,0,0,1-1.362-2.285L77.1,3755.45a1.915,1.915,0,0,1,1.978-1.494l7.164.615c.483.044.967.132,1.45.219a7.539,7.539,0,0,1,4.131,2.857,7.622,7.622,0,0,1,1.275,4.878,9.213,9.213,0,0,1-.264,1.45h0a9.929,9.929,0,0,1-3.912,5.494A9.39,9.39,0,0,1,82.505,3771.36Z" transform="translate(-70.375 -3589.053)"/><path class="d" d="M522.275,3669.533a1.866,1.866,0,0,1-3.6-.967l5.669-21.58a1.9,1.9,0,0,1,2.285-1.318,1.847,1.847,0,0,1,1.318,2.285Z" transform="translate(-495.817 -3485.469)"/><path class="d" d="M611.561,3795.54a1.806,1.806,0,0,1-1.714-1.978,1.83,1.83,0,0,1,1.978-1.714l8.087.659a6.07,6.07,0,0,1,.879.131h0a4.6,4.6,0,0,1,2.593,1.8,4.7,4.7,0,0,1,.791,3.032,7.773,7.773,0,0,1-.176.879l-3.121,11.911a1.822,1.822,0,0,1-2.242,1.318,1.874,1.874,0,0,1-1.362-2.285l3.164-11.866a.56.56,0,0,1,.044-.264.93.93,0,0,0-.176-.615.776.776,0,0,0-.483-.308.587.587,0,0,1-.22-.044Z" transform="translate(-583.038 -3625.277)"/><path class="d" d="M913.272,3849.328a1.86,1.86,0,0,1-3.6-.923l5.406-20.48a1.8,1.8,0,0,1,2.241-1.319,1.821,1.821,0,0,1,1.318,2.241Z" transform="translate(-869.629 -3658.455)"/><path class="d" d="M957.843,3839.272l4.966.4a6.258,6.258,0,0,0,3.955-1.187,6.426,6.426,0,0,0,2.461-3.428c.044-.263.088-.571.132-.835a3.473,3.473,0,0,0-2.637-3.824c-.264-.043-.483-.088-.791-.131l-5.626-.44Zm4.659,4.087-7.164-.571c-.132,0-.22-.045-.352-.045a1.881,1.881,0,0,1-1.318-2.285l3.428-13.01a1.914,1.914,0,0,1,1.978-1.494l7.164.615a13.8,13.8,0,0,1,1.406.22,7.237,7.237,0,0,1,5.406,7.735,8.288,8.288,0,0,1-.22,1.451,10.144,10.144,0,0,1-3.912,5.493A9.393,9.393,0,0,1,962.5,3843.36Z" transform="translate(-911.695 -3657.89)"/><path class="d" d="M8034.847,4942h38.324a1.867,1.867,0,0,1,1.846,1.89,1.982,1.982,0,0,1-.527,1.319l-38.325,38.324a1.911,1.911,0,0,1-2.637,0,2.021,2.021,0,0,1-.528-1.318V4943.89A1.867,1.867,0,0,1,8034.847,4942Zm33.8,3.736h-31.953v31.951Z" transform="translate(-7679.946 -4724.948)"/><path class="d" d="M8039.329,5398.119h29.316l-14.637-14.635Zm33.842,3.736h-38.324a1.733,1.733,0,0,1-1.319-.572,1.857,1.857,0,0,1,0-2.592l19.074-19.074.088-.088a1.91,1.91,0,0,1,2.637,0l19.163,19.162a1.9,1.9,0,0,1,.527,1.318A1.857,1.857,0,0,1,8073.17,5401.855Z" transform="translate(-7679.947 -5142.74)"/><path class="d" d="M8052.853,4942.811a1.864,1.864,0,0,1,2.636,2.637l-20.042,20.042a1.865,1.865,0,0,1-2.636-2.638Z" transform="translate(-7679.229 -4725.155)"/><path class="d" d="M7743.848,3294.913a1.879,1.879,0,0,1,3.736-.4l2.374,24.216c.352,3.3-2.461,7.823-2.505,7.867a1.854,1.854,0,0,1-2.55.615,1.914,1.914,0,0,1-.614-2.593s2.2-3.516,1.978-5.538Z" transform="translate(-7403.495 -3148.201)"/><path class="d" d="M7949.381,3444.507a1.865,1.865,0,0,1-1.669,2.022,1.807,1.807,0,0,1-2.021-1.67l-1.319-13.141h0a3.082,3.082,0,0,0-1.187-.7,6.669,6.669,0,0,0-2.725-.219,10.262,10.262,0,0,0-4.79,1.846,1.813,1.813,0,0,1-2.593-.483,1.837,1.837,0,0,1,.482-2.549,13.976,13.976,0,0,1,6.55-2.549,10.788,10.788,0,0,1,4.263.439,6.169,6.169,0,0,1,3.033,2.109,3.485,3.485,0,0,1,.659,1.758Z" transform="translate(-7584.109 -3276.477)"/><path class="d" d="M7968.964,3597.663a1.834,1.834,0,0,1,1.714,1.978,1.807,1.807,0,0,1-1.978,1.714c-3.823-.263-6.328.352-7.778,1.319a2.954,2.954,0,0,0-.967,1.011,1.62,1.62,0,0,0-.309.835,1.449,1.449,0,0,0,.309,1.011l.133.176a2.912,2.912,0,0,0,2.5.923,9.567,9.567,0,0,0,4.482-1.714l.088-.088a13.246,13.246,0,0,0,1.1-.791,1.858,1.858,0,0,1,2.375,2.856,15.885,15.885,0,0,1-1.363,1.011l-.089.087a12.612,12.612,0,0,1-6.46,2.329,6.3,6.3,0,0,1-5.494-2.241,2.367,2.367,0,0,1-.4-.483,5.648,5.648,0,0,1-.923-3.341,5.54,5.54,0,0,1,.879-2.549,6.728,6.728,0,0,1,2.065-2.11C7960.877,3598.235,7964.218,3597.356,7968.964,3597.663Z" transform="translate(-7606.241 -3439.568)"/><path class="d" d="M8326.268,3360.824a1.865,1.865,0,0,1,.925-2.461,1.9,1.9,0,0,1,2.461.923l5.8,12.7a38.292,38.292,0,0,0,2.682-13.1,1.868,1.868,0,1,1,3.735,0c0,9.406-4.7,18.5-4.7,18.547v-.044a1.9,1.9,0,0,1-.881.879,1.872,1.872,0,0,1-2.46-.923Z" transform="translate(-7960.161 -3209.538)"/><path class="d" d="M8738.707,3366.116a1.866,1.866,0,0,1-1.67,2.022,1.911,1.911,0,0,1-2.067-1.67l-1.272-13.141s0,.044-.045,0a2.429,2.429,0,0,0-1.144-.7,6.6,6.6,0,0,0-2.724-.264,10.374,10.374,0,0,0-4.791,1.89,1.881,1.881,0,0,1-2.593-.483,1.821,1.821,0,0,1,.483-2.594,14.356,14.356,0,0,1,6.549-2.5,10.135,10.135,0,0,1,4.264.439,5.89,5.89,0,0,1,3.031,2.11,3.744,3.744,0,0,1,.66,1.758Z" transform="translate(-8338.715 -3201.513)"/><path class="d" d="M8758.764,3519.313a1.809,1.809,0,0,1,1.714,1.978,1.833,1.833,0,0,1-1.978,1.714c-3.866-.264-6.372.352-7.779,1.319a3.083,3.083,0,0,0-1.012.966,1.7,1.7,0,0,0-.263.835,1.539,1.539,0,0,0,.263,1.055l.133.176h.044a2.739,2.739,0,0,0,2.461.879,9.146,9.146,0,0,0,4.527-1.67l.088-.088a8.258,8.258,0,0,0,1.056-.792,1.858,1.858,0,1,1,2.375,2.857,15.779,15.779,0,0,1-1.32,1.011l-.133.088a12.754,12.754,0,0,1-6.416,2.329,6.63,6.63,0,0,1-5.538-2.242h0c-.131-.175-.264-.351-.353-.484h0a5.373,5.373,0,0,1-.922-3.34,6.4,6.4,0,0,1,.835-2.593,7.269,7.269,0,0,1,2.109-2.066C8750.677,3519.841,8753.972,3518.962,8758.764,3519.313Z" transform="translate(-8361.32 -3364.645)"/><path d="M476.859,2834.262a1.862,1.862,0,1,1,1.45-3.429l22.986,9.67a1.84,1.84,0,0,1,1.011,2.417,1.875,1.875,0,0,1-2.461,1.011Z" transform="translate(-454.796 -2706.343)"/><path d="M7938.676,2423.2a1.857,1.857,0,0,1-2.548-.572,1.809,1.809,0,0,1,.526-2.549l20.832-13.712a1.892,1.892,0,0,1,2.594.528,1.84,1.84,0,0,1-.527,2.549Z" transform="translate(-7587.029 -2300.375)"/><path d="M8128.982,4362.569a1.867,1.867,0,0,1-2.021-1.671,1.907,1.907,0,0,1,1.715-2.021l24.875-2.022a1.875,1.875,0,0,1,2.021,1.715,1.833,1.833,0,0,1-1.713,1.977Z" transform="translate(-7769.776 -4165.46)"/><path d="M484.72,4655.7a1.9,1.9,0,0,1-1.758-1.979,1.86,1.86,0,0,1,1.934-1.758l24.92,1.318a1.9,1.9,0,0,1,1.8,1.978,1.928,1.928,0,0,1-1.978,1.758Z" transform="translate(-461.734 -4447.609)"/><path d="M2929.268,2720.729a1.837,1.837,0,0,1,.923-2.462,1.865,1.865,0,0,1,2.462.924l6.592,14.635a1.9,1.9,0,0,1-.923,2.461,1.855,1.855,0,0,1-2.461-.967Z" transform="translate(-2800.361 -2598.698)"/><path d="M6817.348,3205.417a1.821,1.821,0,0,1,2.55.571,1.847,1.847,0,0,1-.527,2.549l-13.449,8.79a1.859,1.859,0,0,1-2.021-3.12Z" transform="translate(-6504.07 -3064.321)"/><path class="d" d="M3853.753,4724.132l31.908,12.439a1.846,1.846,0,0,1,1.054,2.417,1.677,1.677,0,0,1-1.054,1.054l-31.908,12.482a1.832,1.832,0,0,1-1.363,0l-31.952-12.482a1.866,1.866,0,0,1-1.055-2.417,2.053,2.053,0,0,1,1.055-1.055l31.952-12.439A1.831,1.831,0,0,1,3853.753,4724.132Zm26.106,14.2-26.81-10.461-26.81,10.461,26.81,10.459Z" transform="translate(-3651.405 -4516.494)"/><path class="d" d="M4096.94,5106.846a1.846,1.846,0,0,1,3.692,0v16.79c0,3.648-2.812,6.812-7.339,9.01a41.378,41.378,0,0,1-31.952,0c-4.528-2.2-7.341-5.362-7.341-9.01v-16.79a1.846,1.846,0,0,1,3.692,0v16.79c0,2.065,2.022,4.088,5.274,5.67a37.467,37.467,0,0,0,28.7,0c3.253-1.582,5.274-3.6,5.274-5.67Z" transform="translate(-3875.824 -4880.785)"/><path class="d" d="M4883.736,5181.667a1.867,1.867,0,0,1-3.734,0v-27.777a1.867,1.867,0,1,1,3.734,0Z" transform="translate(-4665.523 -4925.717)"/><path class="d" d="M4502.081,4983.872a1.9,1.9,0,0,1,.923,2.461,1.866,1.866,0,0,1-2.462.923l-16.569-7.6a1.868,1.868,0,0,1,1.583-3.384Z" transform="translate(-4285.889 -4757.509)"/><path class="d" d="M4784.847,5833.912a2.094,2.094,0,0,0,1.494-.615h0a1.95,1.95,0,0,0,.616-1.495,2.091,2.091,0,0,0-.616-1.494l-.088-.044a1.954,1.954,0,0,0-1.406-.571,2.3,2.3,0,0,0-1.5.615h0a2.1,2.1,0,0,0-.615,1.494,1.955,1.955,0,0,0,.615,1.495h0A2.1,2.1,0,0,0,4784.847,5833.912Zm4.13,2.022h0a5.837,5.837,0,0,1-8.262,0h0A5.81,5.81,0,0,1,4779,5831.8a5.885,5.885,0,0,1,1.714-4.131h0a5.847,5.847,0,0,1,4.132-1.67,5.723,5.723,0,0,1,4,1.583l.131.088a5.885,5.885,0,0,1,1.714,4.131,5.81,5.81,0,0,1-1.714,4.132Z" transform="translate(-4568.961 -5570.096)"/><path d="M4556,2238.89a1.868,1.868,0,1,1,3.735,0v11.6a1.868,1.868,0,1,1-3.735,0Z" transform="translate(-4355.762 -2138.734)"/></g></svg>